<?xml version="1.0" encoding="UTF-8" standalone="no"?>
<svg width="61px" height="61px" viewBox="0 0 61 61" version="1.1" xmlns="http://www.w3.org/2000/svg" xmlns:xlink="http://www.w3.org/1999/xlink" xmlns:sketch="http://www.bohemiancoding.com/sketch/ns">
    <title>Untitled</title>
    <description>Created with Sketch (http://www.bohemiancoding.com/sketch)</description>
    <defs></defs>
    <g id="Page-1" stroke="none" stroke-width="1" fill="none" fill-rule="evenodd" sketch:type="MSPage">
        <path d="M60.091,30.546 C60.091,46.864 46.863,60.092 30.545,60.092 C14.227,60.092 1,46.864 1,30.546 C1,14.228 14.228,1 30.546,1 C46.864,1 60.091,14.228 60.091,30.546 L60.091,30.546 Z" id="cred_1_" stroke="#F86363" sketch:type="MSShapeGroup"></path>
        <g id="linkred" sketch:type="MSLayerGroup" transform="translate(13.000000, 16.000000)" stroke="#F86363">
            <path d="M17.735,19.893 L9.773,27.855 L4.464,22.546 L12.426,14.584 L11.098,13.256 C10.366,12.524 9.177,12.524 8.445,13.256 L0.483,21.218 C-0.249,21.952 -0.249,23.141 0.483,23.873 L8.445,31.835 C9.177,32.567 10.366,32.567 11.098,31.835 L19.06,23.873 C19.794,23.141 19.794,21.952 19.06,21.218 L17.734,19.892 L17.735,19.893 L17.735,19.893 Z M15.006,14.659 L11.098,18.567 C10.366,19.299 10.366,20.486 11.098,21.218 C11.832,21.952 13.019,21.952 13.753,21.218 L17.752,17.219 L15.006,14.659 Z" id="Shape" sketch:type="MSShapeGroup"></path>
            <path d="M17.923,8.987 L17.16,7.274 C16.738,6.326 17.164,5.215 18.112,4.795 L28.398,0.215 C29.344,-0.206 30.454,0.22 30.875,1.166 L35.455,11.452 L35.456,11.453 C35.877,12.399 35.451,13.509 34.504,13.932 L24.218,18.512 C23.272,18.933 22.162,18.507 21.741,17.561 L20.977,15.845 L31.263,11.265 L28.21,4.407 L17.923,8.987" id="Shape" sketch:type="MSShapeGroup"></path>
            <path d="M16.876,11.507 L22.114,9.175 C23.062,8.753 24.171,9.178 24.593,10.127 C25.014,11.073 24.589,12.181 23.643,12.602 L18.523,14.882" id="Shape" sketch:type="MSShapeGroup"></path>
        </g>
    </g>
</svg>