<?xml version="1.0" encoding="UTF-8" standalone="no"?>
<svg width="61px" height="61px" viewBox="0 0 61 61" version="1.1" xmlns="http://www.w3.org/2000/svg" xmlns:xlink="http://www.w3.org/1999/xlink" xmlns:sketch="http://www.bohemiancoding.com/sketch/ns">
    <title>Untitled</title>
    <description>Created with Sketch (http://www.bohemiancoding.com/sketch)</description>
    <defs></defs>
    <g id="Page-1" stroke="none" stroke-width="1" fill="none" fill-rule="evenodd" sketch:type="MSPage">
        <path d="M60.091,30.546 C60.091,46.864 46.863,60.092 30.545,60.092 C14.227,60.092 1,46.864 1,30.546 C1,14.228 14.228,1 30.546,1 C46.864,1 60.091,14.228 60.091,30.546 L60.091,30.546 Z" id="c1l" stroke="#14CC47" sketch:type="MSShapeGroup"></path>
        <path d="M47.37175,23.02975 L38.92475,14.58275 C38.14775,13.80575 36.88675,13.80575 36.10975,14.58275 L27.66275,23.02975 C26.88375,23.80675 26.88375,25.06775 27.66275,25.84675 L29.06975,27.25375 L37.51675,18.80675 L43.14875,24.43875 L34.70175,32.88575 L36.11075,34.29475 C36.88775,35.07175 38.14875,35.07175 38.92575,34.29475 L47.37275,25.84775 C48.14975,25.06875 48.14975,23.80675 47.37275,23.03075 L47.37175,23.02975 L47.37175,23.02975 Z M31.88575,35.70075 L23.43875,44.14775 L17.80675,38.51575 L26.25375,30.06875 L24.84475,28.65975 C24.06775,27.88275 22.80675,27.88275 22.02975,28.65975 L13.58275,37.10675 C12.80575,37.88575 12.80575,39.14775 13.58275,39.92375 L22.02975,48.37075 C22.80675,49.14775 24.06775,49.14775 24.84475,48.37075 L33.29175,39.92375 C34.07075,39.14675 34.07075,37.88575 33.29175,37.10675 L31.88475,35.69975 L31.88575,35.70075 L31.88575,35.70075 Z M24.84475,37.10675 C25.62375,37.88575 26.88275,37.88575 27.66175,37.10675 L36.10875,28.65975 C36.88575,27.88275 36.88575,26.62375 36.10875,25.84675 C35.32975,25.06775 34.07075,25.06775 33.29175,25.84675 L24.84475,34.29375 C24.06775,35.07075 24.06775,36.32975 24.84475,37.10675 L24.84475,37.10675 Z" id="link" stroke="#14CC47" sketch:type="MSShapeGroup"></path>
    </g>
</svg>