<?xml version="1.0" encoding="UTF-8" standalone="no"?>
<svg width="57px" height="58px" viewBox="0 0 57 58" version="1.1" xmlns="http://www.w3.org/2000/svg" xmlns:xlink="http://www.w3.org/1999/xlink" xmlns:sketch="http://www.bohemiancoding.com/sketch/ns">
    <title>Untitled</title>
    <description>Created with Sketch (http://www.bohemiancoding.com/sketch)</description>
    <defs></defs>
    <g id="Page-1" stroke="none" stroke-width="1" fill="none" fill-rule="evenodd" sketch:type="MSPage">
        <g id="twitter" sketch:type="MSLayerGroup" transform="translate(0.000000, 1.000000)">
            <g id="Calque_1"></g>
            <g id="Calque_2" fill="#9012FE" sketch:type="MSShapeGroup">
                <path d="M-0.001,53.55 L-0.001,3.115 C-0.001,1.387 1.399,-0.014 3.128,-0.014 L53.563,-0.014 C55.291,-0.014 56.692,1.387 56.692,3.115 L56.692,53.55 C56.692,55.278 55.291,56.679 53.563,56.679 L3.128,56.679 C1.399,56.679 -0.001,55.278 -0.001,53.55 Z" id="Shape"></path>
            </g>
            <g id="Calque_3" transform="translate(11.000000, 14.000000)" fill="#FFFFFF" sketch:type="MSShapeGroup">
                <path d="M34.495,3.269 C33.233,3.829 31.877,4.207 30.453,4.377 C31.906,3.506 33.022,2.127 33.547,0.484 C32.187,1.29 30.681,1.876 29.078,2.192 C27.794,0.824 25.965,-0.03 23.941,-0.03 C20.054,-0.03 16.904,3.121 16.904,7.007 C16.904,7.559 16.966,8.096 17.086,8.611 C11.237,8.318 6.052,5.516 2.581,1.258 C1.975,2.297 1.628,3.506 1.628,4.796 C1.628,7.237 2.87,9.391 4.759,10.653 C3.605,10.616 2.52,10.3 1.572,9.773 C1.572,9.802 1.571,9.832 1.571,9.861 C1.571,13.271 3.997,16.115 7.216,16.761 C6.625,16.922 6.004,17.008 5.362,17.008 C4.909,17.008 4.468,16.964 4.038,16.882 C4.934,19.678 7.532,21.712 10.612,21.769 C8.204,23.656 5.169,24.781 1.872,24.781 C1.304,24.781 0.744,24.748 0.193,24.683 C3.307,26.68 7.006,27.845 10.98,27.845 C23.924,27.845 31.002,17.122 31.002,7.823 C31.002,7.518 30.995,7.214 30.982,6.913 C32.359,5.92 33.552,4.68 34.495,3.269 L34.495,3.269 Z" id="Shape"></path>
            </g>
        </g>
        <g id="envelope" sketch:type="MSLayerGroup" transform="translate(10.000000, 17.000000)"></g>
        <rect id="Rectangle-1" fill="#9012FE" sketch:type="MSShapeGroup" x="6" y="13" width="47" height="33"></rect>
        <g id="envelope" sketch:type="MSLayerGroup" transform="translate(8.000000, 15.000000)" fill="#FFFFFF">
            <path d="M20.5219643,19.2915 L14.5593929,14.277 L1.58289286,29.9715 L39.47275,29.9715 L26.4947857,14.121 L20.5219643,19.2915 L20.5219643,19.2915 Z M40.8916429,0.0285 L0.162535714,0.0285 L20.5278214,17.5755 L40.8916429,0.0285 L40.8916429,0.0285 Z M27.3894643,13.3305 L40.9941429,29.9565 L40.9941429,1.5285 L27.3894643,13.3305 L27.3894643,13.3305 Z M0.00585714286,1.5285 L0.00585714286,29.9565 L13.6105357,13.3305 L0.00585714286,1.5285 L0.00585714286,1.5285 Z" id="Shape" sketch:type="MSShapeGroup"></path>
        </g>
    </g>
</svg>