<?xml version="1.0" encoding="utf-8"?>
<!-- Generator: Adobe Illustrator 17.0.2, SVG Export Plug-In . SVG Version: 6.00 Build 0)  -->
<!DOCTYPE svg PUBLIC "-//W3C//DTD SVG 1.1//EN" "http://www.w3.org/Graphics/SVG/1.1/DTD/svg11.dtd">
<svg version="1.1" id="Calque_1" xmlns="http://www.w3.org/2000/svg" xmlns:xlink="http://www.w3.org/1999/xlink" x="0px" y="0px"
	 width="56.69px" height="56.69px" viewBox="0 0 56.69 56.69" enable-background="new 0 0 56.69 56.69" xml:space="preserve">
<path fill="none" stroke="#333333" stroke-miterlimit="10" d="M56.028,34.448c0-4.447-3.07-8.175-7.205-9.18
	c-0.176-6.972-5.876-12.572-12.885-12.572c-4.106,0-7.761,1.923-10.123,4.914c-1.324-1.711-3.397-2.816-5.726-2.816
	c-3.999,0-7.24,3.243-7.24,7.245c0,0.348,0.026,0.692,0.075,1.026c-0.609-0.11-1.232-0.17-1.872-0.17
	c-5.797,0-10.494,4.701-10.494,10.502s4.697,10.502,10.494,10.502h35.551c5.207-0.01,9.427-4.237,9.427-9.449L56.028,34.448z"/>
</svg>
