<?xml version="1.0" encoding="utf-8"?>
<!-- Generator: Adobe Illustrator 17.0.2, SVG Export Plug-In . SVG Version: 6.00 Build 0)  -->
<!DOCTYPE svg PUBLIC "-//W3C//DTD SVG 1.1//EN" "http://www.w3.org/Graphics/SVG/1.1/DTD/svg11.dtd">
<svg version="1.1" id="Calque_1" xmlns="http://www.w3.org/2000/svg" xmlns:xlink="http://www.w3.org/1999/xlink" x="0px" y="0px"
	 width="56.69px" height="56.69px" viewBox="0 0 56.69 56.69" enable-background="new 0 0 56.69 56.69" xml:space="preserve">
<g>
	<g id="Layer_1">
		<path fill="#FFFFFF" d="M26.543,0.528c12.395-0.859,20.613,5.206,25.313,12.596c2.356,3.705,4.668,9.333,4.679,15.116
			c0.011,6.283-2.024,11.723-4.679,15.715c-2.729,4.103-6.258,7.492-10.677,9.717c-7.387,3.72-17.711,3.821-24.473,0.24
			C9.175,49.923,3.384,44.23,1.23,34.358c-0.862-3.951-0.961-9.056,0.24-13.436c0.282-1.027,0.794-2.109,1.2-3.119
			c1.949-4.855,5.266-9.077,9.357-11.997c1.644-1.173,3.639-2.34,5.398-3.119C19.615,1.718,23.301,0.752,26.543,0.528z"/>
		<path d="M50.054,28.938c0,11.715-9.496,21.21-21.211,21.21S7.633,40.653,7.633,28.938c0-11.714,9.496-21.211,21.211-21.211
			C40.557,7.727,50.054,17.224,50.054,28.938z"/>
		<path d="M26.543,0.528c12.395-0.859,20.613,5.206,25.313,12.596c2.356,3.705,4.668,9.333,4.679,15.116
			c0.011,6.283-2.024,11.723-4.679,15.715c-2.729,4.103-6.258,7.492-10.677,9.717c-7.387,3.72-17.711,3.821-24.473,0.24
			C9.175,49.923,3.384,44.23,1.23,34.358c-0.862-3.951-0.961-9.056,0.24-13.436c0.282-1.027,0.794-2.109,1.2-3.119
			c1.949-4.855,5.266-9.077,9.357-11.997c1.644-1.173,3.639-2.34,5.398-3.119C19.615,1.718,23.301,0.752,26.543,0.528z
			 M22.344,2.567c-4.604,1.194-7.98,3.332-10.917,5.638c-4.235,3.326-6.936,7.967-8.518,13.556c-1.76,6.219-0.629,13.744,1.8,18.475
			c2.519,4.906,5.901,8.715,10.677,11.397c4.647,2.609,11.182,4.285,17.995,2.999c6.053-1.142,10.651-3.779,14.396-7.678
			c5.011-5.216,9.038-14.823,6.358-24.953c-0.716-2.707-1.653-5.529-3.119-7.918c-0.792-1.29-1.955-2.56-3.119-3.839
			c-4.395-4.827-11.499-8.986-20.634-8.398C25.524,1.959,23.996,2.139,22.344,2.567z"/>
		<g>
			<g>
				<line fill="none" stroke="#FFFFFF" stroke-width="0.187" x1="30.126" y1="54.376" x2="54.636" y2="29.867"/>
				<line fill="none" stroke="#FFFFFF" stroke-width="0.187" x1="27.983" y1="52.435" x2="52.6" y2="27.819"/>
				<line fill="none" stroke="#FFFFFF" stroke-width="0.187" x1="25.841" y1="50.494" x2="50.564" y2="25.771"/>
				<line fill="none" stroke="#FFFFFF" stroke-width="0.187" x1="23.698" y1="48.553" x2="48.529" y2="23.723"/>
				<line fill="none" stroke="#FFFFFF" stroke-width="0.187" x1="21.555" y1="46.612" x2="46.493" y2="21.675"/>
				<line fill="none" stroke="#FFFFFF" stroke-width="0.187" x1="19.412" y1="44.672" x2="44.457" y2="19.627"/>
				<line fill="none" stroke="#FFFFFF" stroke-width="0.187" x1="17.27" y1="42.73" x2="42.421" y2="17.579"/>
				<line fill="none" stroke="#FFFFFF" stroke-width="0.187" x1="15.127" y1="40.789" x2="40.386" y2="15.531"/>
				<line fill="none" stroke="#FFFFFF" stroke-width="0.187" x1="12.984" y1="38.848" x2="38.35" y2="13.483"/>
				<line fill="none" stroke="#FFFFFF" stroke-width="0.187" x1="10.841" y1="36.907" x2="36.314" y2="11.435"/>
				<line fill="none" stroke="#FFFFFF" stroke-width="0.187" x1="8.699" y1="34.967" x2="34.278" y2="9.387"/>
				<line fill="none" stroke="#FFFFFF" stroke-width="0.187" x1="6.556" y1="33.026" x2="32.243" y2="7.339"/>
				<line fill="none" stroke="#FFFFFF" stroke-width="0.187" x1="4.413" y1="31.084" x2="30.207" y2="5.291"/>
				<line fill="none" stroke="#FFFFFF" stroke-width="0.187" x1="2.27" y1="29.143" x2="28.171" y2="3.243"/>
			</g>
			<g>
				<line fill="none" stroke="#FFFFFF" stroke-width="0.187" x1="2.262" y1="29.391" x2="27.262" y2="54.392"/>
				<line fill="none" stroke="#FFFFFF" stroke-width="0.187" x1="4.289" y1="27.335" x2="29.338" y2="52.385"/>
				<line fill="none" stroke="#FFFFFF" stroke-width="0.187" x1="6.317" y1="25.279" x2="31.414" y2="50.377"/>
				<line fill="none" stroke="#FFFFFF" stroke-width="0.187" x1="8.344" y1="23.222" x2="33.49" y2="48.369"/>
				<line fill="none" stroke="#FFFFFF" stroke-width="0.187" x1="10.371" y1="21.166" x2="35.566" y2="46.361"/>
				<line fill="none" stroke="#FFFFFF" stroke-width="0.187" x1="12.399" y1="19.109" x2="37.642" y2="44.354"/>
				<line fill="none" stroke="#FFFFFF" stroke-width="0.187" x1="14.426" y1="17.053" x2="39.718" y2="42.346"/>
				<line fill="none" stroke="#FFFFFF" stroke-width="0.187" x1="16.454" y1="14.997" x2="41.794" y2="40.338"/>
				<line fill="none" stroke="#FFFFFF" stroke-width="0.187" x1="18.481" y1="12.94" x2="43.87" y2="38.33"/>
				<line fill="none" stroke="#FFFFFF" stroke-width="0.187" x1="20.508" y1="10.884" x2="45.946" y2="36.322"/>
				<line fill="none" stroke="#FFFFFF" stroke-width="0.187" x1="22.536" y1="8.828" x2="48.022" y2="34.315"/>
				<line fill="none" stroke="#FFFFFF" stroke-width="0.187" x1="24.563" y1="6.771" x2="50.098" y2="32.307"/>
				<line fill="none" stroke="#FFFFFF" stroke-width="0.187" x1="26.59" y1="4.715" x2="52.174" y2="30.299"/>
				<line fill="none" stroke="#FFFFFF" stroke-width="0.187" x1="28.618" y1="2.659" x2="54.25" y2="28.291"/>
			</g>
		</g>
		<g>
			<g>
				<path d="M46.457,10.365c-2.206-2.206-4.918-4.194-8.158-5.398c-3.358-1.249-7.157-2.301-11.637-1.919
					c-7.137,0.608-12.147,3.81-15.955,7.558c-2.667,2.625-4.674,5.841-5.998,9.597c-1.945,5.515-1.827,12.024,0.36,17.635
					c1.865,4.786,4.918,8.646,9.237,11.637c4.061,2.811,9.889,4.992,16.435,4.439c7.973-0.673,13.807-4.764,17.635-9.477
					c0.98-1.206,1.953-2.569,2.519-4.199c0.554-1.174,0.826-1.973,1.08-2.399c1.063-2.383,1.627-4.896,1.799-7.678
					C54.306,21.604,51.014,14.923,46.457,10.365z M44.107,36.428c-0.015,0.033-0.029,0.063-0.045,0.096
					c-0.396,1.132-1.077,2.078-1.762,2.916c-2.677,3.273-6.757,6.113-12.332,6.581c-4.578,0.384-8.654-1.13-11.493-3.082
					c-2.468-1.696-4.343-3.796-5.659-6.32c-0.08-0.152-0.844-1.912-0.846-1.989c-1.042-3.232-1.132-8.43-0.063-11.548
					c0.714-2.082,1.903-4.334,3.479-6.118c2.175-2.464,4.352-4.043,7.798-5.159c1.573-0.51,2.981-1.028,4.919-1.08
					c4.724-0.126,9.534,1.995,12.116,4.319c2.373,2.135,5.078,6.295,5.758,10.197C46.677,29.257,45.93,33.178,44.107,36.428z"/>
			</g>
		</g>
		<g>
			<path fill="#FFFFFF" d="M35.897,40.28c-1.163,0-2.184-0.737-2.54-1.833L32.061,34.5H25.58l-1.204,3.911
				c-0.363,1.118-1.392,1.866-2.561,1.866c-0.281,0-0.56-0.044-0.829-0.132c-1.397-0.42-2.191-1.924-1.763-3.351l5.47-17.328
				c0.355-1.102,1.401-1.871,2.543-1.871h2.909c1.149,0,2.194,0.756,2.543,1.838l5.753,17.321c0.46,1.416-0.302,2.936-1.697,3.391
				C36.469,40.235,36.184,40.28,35.897,40.28L35.897,40.28z"/>
			<path d="M30.146,17.876c1.011,0,1.96,0.664,2.276,1.643l5.754,17.324c0.411,1.265-0.253,2.624-1.518,3.036
				C36.405,39.961,36.149,40,35.897,40c-1.009,0-1.945-0.627-2.273-1.639l-1.359-4.141h-6.891l-1.265,4.109
				c-0.331,1.018-1.277,1.668-2.293,1.668c-0.246,0-0.496-0.038-0.742-0.118c-1.265-0.38-1.96-1.739-1.581-3.004l5.469-17.324
				c0.316-0.98,1.233-1.675,2.276-1.675L30.146,17.876 M30.146,17.315h-2.909c-1.283,0-2.412,0.829-2.81,2.064l-5.47,17.327
				l-0.001,0.004l-0.001,0.004c-0.472,1.574,0.403,3.232,1.951,3.701c0.295,0.095,0.601,0.143,0.909,0.143
				c1.291,0,2.427-0.826,2.826-2.055l0.001-0.004l0.001-0.004l1.143-3.713h6.071l1.233,3.755c0.393,1.211,1.521,2.025,2.806,2.025
				c0.316,0,0.631-0.05,0.935-0.149c1.543-0.502,2.385-2.181,1.878-3.742l-5.754-17.325C32.569,18.15,31.414,17.315,30.146,17.315
				L30.146,17.315z"/>
		</g>
		<g>
			<path fill="#FFFFFF" d="M14.413,12.073l-0.007-0.009c-0.682-0.935-0.482-2.243,0.523-2.976c1.005-0.733,2.295-0.527,2.977,0.407
				l0.007,0.009c0.682,0.935,0.482,2.243-0.523,2.976C16.386,13.214,15.095,13.008,14.413,12.073z M16.999,10.186l-0.007-0.009
				c-0.343-0.47-0.981-0.631-1.479-0.268c-0.493,0.36-0.531,1.001-0.189,1.471l0.007,0.009c0.343,0.47,0.981,0.631,1.474,0.272
				C17.304,11.297,17.342,10.656,16.999,10.186z"/>
			<path fill="#FFFFFF" d="M20.99,5.946l1.025-0.329l2.874,3.341l-1.14,0.366L23.25,8.728l-1.48,0.475l-0.054,0.773l-1.118,0.359
				L20.99,5.946z M22.677,7.999l-0.778-0.954l-0.083,1.23L22.677,7.999z"/>
			<path fill="#FFFFFF" d="M26.736,6.951l0.009-2.263l1.134,0.004l-0.009,2.24c-0.002,0.582,0.29,0.859,0.739,0.861
				c0.449,0.002,0.744-0.262,0.746-0.826l0.009-2.269l1.134,0.004L30.49,6.937c-0.005,1.301-0.75,1.869-1.896,1.864
				C27.449,8.796,26.731,8.212,26.736,6.951z"/>
			<path fill="#FFFFFF" d="M34.596,6.555L33.44,6.202l0.286-0.936l3.381,1.032l-0.286,0.936l-1.156-0.353L34.774,9.8l-1.068-0.326
				L34.596,6.555z"/>
			<path fill="#FFFFFF" d="M40.127,7.604l0.93,0.619l-0.836,1.256l1.194,0.794l0.836-1.256l0.93,0.619l-2.233,3.356l-0.93-0.619
				l0.849-1.275l-1.194-0.794l-0.849,1.275l-0.93-0.619L40.127,7.604z"/>
		</g>
	</g>
	<g id="OAUTH">
		<g>
			<path fill="#FFFFFF" d="M43.412,44.287l0.007,0.009c0.718,0.908,0.567,2.223-0.409,2.994c-0.976,0.771-2.274,0.615-2.991-0.293
				l-0.007-0.009c-0.718-0.908-0.567-2.223,0.409-2.994C41.397,43.223,42.694,43.379,43.412,44.287z M40.9,46.272l0.007,0.009
				c0.361,0.456,1.004,0.593,1.488,0.211c0.479-0.378,0.493-1.02,0.132-1.477l-0.007-0.009c-0.36-0.456-1.004-0.593-1.483-0.215
				C40.553,45.173,40.539,45.815,40.9,46.272z"/>
			<path fill="#FFFFFF" d="M37.106,50.673l-1.01,0.374l-3.018-3.211l1.123-0.416l0.525,0.573l1.458-0.54l0.02-0.775l1.102-0.408
				L37.106,50.673z M35.331,48.696l0.819,0.919l0.029-1.233L35.331,48.696z"/>
			<path fill="#FFFFFF" d="M31.326,49.907l0.1,2.261l-1.133,0.05l-0.099-2.238c-0.026-0.581-0.331-0.844-0.78-0.824
				c-0.449,0.02-0.73,0.297-0.706,0.861l0.1,2.266l-1.133,0.05l-0.099-2.232c-0.057-1.3,0.66-1.902,1.804-1.953
				C30.526,48.097,31.271,48.647,31.326,49.907z"/>
			<path fill="#FFFFFF" d="M23.452,50.646l1.168,0.315l-0.255,0.945l-3.414-0.921l0.255-0.945l1.168,0.315l0.795-2.947l1.079,0.291
				L23.452,50.646z"/>
			<path fill="#FFFFFF" d="M17.933,49.825l-0.958-0.574l0.776-1.294l-1.23-0.737l-0.776,1.294l-0.958-0.574l2.072-3.458l0.958,0.574
				l-0.787,1.314l1.23,0.737l0.787-1.314l0.958,0.574L17.933,49.825z"/>
		</g>
	</g>
</g>
</svg>
