<?xml version="1.0" encoding="utf-8"?>
<!-- Generator: Adobe Illustrator 17.0.2, SVG Export Plug-In . SVG Version: 6.00 Build 0)  -->
<!DOCTYPE svg PUBLIC "-//W3C//DTD SVG 1.1//EN" "http://www.w3.org/Graphics/SVG/1.1/DTD/svg11.dtd">
<svg version="1.1" id="Calque_1" xmlns="http://www.w3.org/2000/svg" xmlns:xlink="http://www.w3.org/1999/xlink" x="0px" y="0px"
	 width="56.69px" height="56.69px" viewBox="0 0 56.69 56.69" enable-background="new 0 0 56.69 56.69" xml:space="preserve">
<g>
	<path id="Blue_1_" fill="#3D5A99" d="M53.626,56.754c1.728,0,3.129-1.401,3.129-3.129V3.19c0-1.728-1.401-3.129-3.129-3.129H3.191
		c-1.729,0-3.129,1.401-3.129,3.129v50.435c0,1.728,1.4,3.129,3.129,3.129H53.626z"/>
	<path id="f" fill="#FFFFFF" d="M39.179,56.754V34.8h7.369l1.103-8.556h-8.473v-5.463c0-2.477,0.688-4.165,4.24-4.165l4.531-0.002
		V8.961c-0.784-0.104-3.473-0.337-6.602-0.337c-6.532,0-11.005,3.987-11.005,11.31v6.31h-7.388V34.8h7.388v21.954H39.179z"/>
</g>
</svg>
