<?xml version="1.0" encoding="utf-8"?>
<!-- Generator: Adobe Illustrator 17.0.2, SVG Export Plug-In . SVG Version: 6.00 Build 0)  -->
<!DOCTYPE svg PUBLIC "-//W3C//DTD SVG 1.1//EN" "http://www.w3.org/Graphics/SVG/1.1/DTD/svg11.dtd">
<svg version="1.1" id="Calque_1" xmlns="http://www.w3.org/2000/svg" xmlns:xlink="http://www.w3.org/1999/xlink" x="0px" y="0px"
	 width="56.69px" height="56.69px" viewBox="0 0 56.69 56.69" enable-background="new 0 0 56.69 56.69" xml:space="preserve">
<path id="Blue_1_" fill="#0076B3" d="M53.563,56.691c1.728,0,3.129-1.401,3.129-3.129V3.128c0-1.728-1.401-3.129-3.129-3.129H3.128
	c-1.729,0-3.129,1.401-3.129,3.129v50.435c0,1.728,1.4,3.129,3.129,3.129H53.563z"/>
<g>
	<g>
		<path fill="#FFFFFF" d="M8.4,21.251h8.41v27.048H8.4V21.251z M12.605,7.803c2.688,0,4.872,2.184,4.872,4.873
			c0,2.692-2.184,4.876-4.872,4.876c-2.695,0-4.873-2.184-4.873-4.876C7.732,9.988,9.91,7.803,12.605,7.803"/>
		<path fill="#FFFFFF" d="M22.083,21.251h8.065v3.694h0.115c1.122-2.126,3.865-4.369,7.955-4.369
			c8.507,0,10.078,5.601,10.078,12.887v14.836h-8.397V35.146c0-3.139-0.062-7.173-4.37-7.173c-4.375,0-5.042,3.417-5.042,6.946
			v13.381h-8.404V21.251z"/>
	</g>
</g>
</svg>
