<?xml version="1.0" encoding="utf-8"?>
<!-- Generator: Adobe Illustrator 17.0.2, SVG Export Plug-In . SVG Version: 6.00 Build 0)  -->
<!DOCTYPE svg PUBLIC "-//W3C//DTD SVG 1.1//EN" "http://www.w3.org/Graphics/SVG/1.1/DTD/svg11.dtd">
<svg version="1.1" xmlns="http://www.w3.org/2000/svg" xmlns:xlink="http://www.w3.org/1999/xlink" x="0px" y="0px" width="56.69px"
	 height="56.69px" viewBox="0 0 56.69 56.69" enable-background="new 0 0 56.69 56.69" xml:space="preserve">
<g id="Calque_1">
</g>
<g id="Calque_2">
	<path fill="#55ACEE" d="M3.128,56.679c-1.729,0-3.129-1.401-3.129-3.129V3.115c0-1.728,1.4-3.129,3.129-3.129h50.435
		c1.728,0,3.129,1.401,3.129,3.129V53.55c0,1.728-1.401,3.129-3.129,3.129H3.128z"/>
</g>
<g id="Calque_3">
	<path fill="#FFFFFF" d="M45.495,17.269c-1.262,0.56-2.618,0.938-4.042,1.108c1.453-0.871,2.569-2.25,3.094-3.893
		c-1.36,0.806-2.866,1.392-4.469,1.708c-1.284-1.368-3.113-2.222-5.137-2.222c-3.887,0-7.037,3.151-7.037,7.037
		c0,0.552,0.062,1.089,0.182,1.604c-5.849-0.293-11.034-3.095-14.505-7.353c-0.606,1.039-0.953,2.248-0.953,3.538
		c0,2.441,1.242,4.595,3.131,5.857c-1.154-0.037-2.239-0.353-3.187-0.88c0,0.029-0.001,0.059-0.001,0.088
		c0,3.41,2.426,6.254,5.645,6.9c-0.591,0.161-1.212,0.247-1.854,0.247c-0.453,0-0.894-0.044-1.324-0.126
		c0.896,2.796,3.494,4.83,6.574,4.887c-2.408,1.887-5.443,3.012-8.74,3.012c-0.568,0-1.128-0.033-1.679-0.098
		c3.114,1.997,6.813,3.162,10.787,3.162c12.944,0,20.022-10.723,20.022-20.022c0-0.305-0.007-0.609-0.02-0.91
		C43.359,19.92,44.552,18.68,45.495,17.269z"/>
</g>
</svg>
